<mxfile host="app.diagrams.net" modified="2023-01-19T13:10:40.053Z" agent="5.0 (Windows NT 10.0; Win64; x64) AppleWebKit/537.36 (KHTML, like Gecko) Chrome/109.0.0.0 Safari/537.36" etag="b8W9rsVZm8wedOskDq6i" version="20.8.6" type="github">
  <diagram id="6a731a19-8d31-9384-78a2-239565b7b9f0" name="Page-1">
    <mxGraphModel dx="1912" dy="2361" grid="1" gridSize="10" guides="1" tooltips="1" connect="1" arrows="1" fold="1" page="1" pageScale="1" pageWidth="827" pageHeight="1169" background="none" math="0" shadow="0">
      <root>
        <mxCell id="0" />
        <mxCell id="1" parent="0" />
        <mxCell id="-csYpBsCqHvFZOswOHY8-2287" style="edgeStyle=none;shape=link;rounded=0;orthogonalLoop=1;jettySize=auto;html=1;entryX=0.078;entryY=0.52;entryDx=0;entryDy=0;entryPerimeter=0;fontSize=20;endArrow=none;endFill=0;exitX=0.98;exitY=0.5;exitDx=0;exitDy=0;exitPerimeter=0;fontColor=#FF0000;" edge="1" parent="1" source="-csYpBsCqHvFZOswOHY8-2257" target="-csYpBsCqHvFZOswOHY8-2261">
          <mxGeometry relative="1" as="geometry">
            <mxPoint x="230" y="-472" as="sourcePoint" />
          </mxGeometry>
        </mxCell>
        <mxCell id="-csYpBsCqHvFZOswOHY8-2292" style="edgeStyle=none;rounded=0;orthogonalLoop=1;jettySize=auto;html=1;exitX=0.5;exitY=0;exitDx=0;exitDy=0;exitPerimeter=0;fontSize=20;endArrow=none;endFill=0;shape=link;entryX=0.5;entryY=0.98;entryDx=0;entryDy=0;entryPerimeter=0;fontColor=#FF0000;" edge="1" parent="1" source="-csYpBsCqHvFZOswOHY8-2257" target="-csYpBsCqHvFZOswOHY8-2271">
          <mxGeometry relative="1" as="geometry">
            <mxPoint x="148.33333333333348" y="-670" as="targetPoint" />
          </mxGeometry>
        </mxCell>
        <mxCell id="-csYpBsCqHvFZOswOHY8-2257" value="&lt;font style=&quot;font-size: 20px;&quot;&gt;DUT122&lt;/font&gt;" style="shape=mxgraph.cisco.switches.workgroup_switch;html=1;dashed=0;fillColor=#10739E;strokeColor=#ffffff;strokeWidth=2;verticalLabelPosition=bottom;verticalAlign=top;fontFamily=Helvetica;fontSize=36;fontColor=#FF0000;" vertex="1" parent="1">
          <mxGeometry x="98" y="-495" width="101" height="50" as="geometry" />
        </mxCell>
        <mxCell id="-csYpBsCqHvFZOswOHY8-2258" value="&lt;font style=&quot;font-size: 20px;&quot;&gt;RUT-C9K-1&lt;/font&gt;" style="shape=mxgraph.cisco.routers.router;html=1;dashed=0;fillColor=#10739E;strokeColor=#ffffff;strokeWidth=2;verticalLabelPosition=bottom;verticalAlign=top;fontFamily=Helvetica;fontSize=36;fontColor=#FF0000;" vertex="1" parent="1">
          <mxGeometry x="320" y="-1160" width="78" height="53" as="geometry" />
        </mxCell>
        <mxCell id="-csYpBsCqHvFZOswOHY8-2295" style="edgeStyle=none;rounded=0;orthogonalLoop=1;jettySize=auto;html=1;exitX=0.5;exitY=0;exitDx=0;exitDy=0;exitPerimeter=0;fontSize=20;endArrow=none;endFill=0;fontColor=#FF0000;" edge="1" parent="1" source="-csYpBsCqHvFZOswOHY8-2259" target="-csYpBsCqHvFZOswOHY8-2261">
          <mxGeometry relative="1" as="geometry" />
        </mxCell>
        <mxCell id="-csYpBsCqHvFZOswOHY8-2297" style="edgeStyle=none;rounded=0;orthogonalLoop=1;jettySize=auto;html=1;exitX=0.5;exitY=0;exitDx=0;exitDy=0;exitPerimeter=0;entryX=0.696;entryY=1.02;entryDx=0;entryDy=0;entryPerimeter=0;fontSize=20;endArrow=none;endFill=0;fontColor=#FF0000;" edge="1" parent="1" source="-csYpBsCqHvFZOswOHY8-2259" target="-csYpBsCqHvFZOswOHY8-2257">
          <mxGeometry relative="1" as="geometry" />
        </mxCell>
        <mxCell id="-csYpBsCqHvFZOswOHY8-2259" value="&lt;font style=&quot;font-size: 20px;&quot;&gt;esxi21-28&lt;br&gt;Vlan560&lt;br&gt;&lt;/font&gt;" style="shape=mxgraph.cisco.servers.file_server;html=1;dashed=0;fillColor=#10739E;strokeColor=#ffffff;strokeWidth=2;verticalLabelPosition=bottom;verticalAlign=top;fontFamily=Helvetica;fontSize=36;fontColor=#FF0000;" vertex="1" parent="1">
          <mxGeometry x="272.52" y="-234.5" width="43" height="77.5" as="geometry" />
        </mxCell>
        <mxCell id="-csYpBsCqHvFZOswOHY8-2294" style="edgeStyle=none;rounded=0;orthogonalLoop=1;jettySize=auto;html=1;exitX=0.5;exitY=0;exitDx=0;exitDy=0;exitPerimeter=0;fontSize=20;endArrow=none;endFill=0;fontColor=#FF0000;" edge="1" parent="1" source="-csYpBsCqHvFZOswOHY8-2260" target="-csYpBsCqHvFZOswOHY8-2257">
          <mxGeometry relative="1" as="geometry" />
        </mxCell>
        <mxCell id="-csYpBsCqHvFZOswOHY8-2296" style="edgeStyle=none;rounded=0;orthogonalLoop=1;jettySize=auto;html=1;exitX=0.5;exitY=0;exitDx=0;exitDy=0;exitPerimeter=0;entryX=0.276;entryY=1.003;entryDx=0;entryDy=0;entryPerimeter=0;fontSize=20;endArrow=none;endFill=0;fontColor=#FF0000;" edge="1" parent="1" source="-csYpBsCqHvFZOswOHY8-2260" target="-csYpBsCqHvFZOswOHY8-2261">
          <mxGeometry relative="1" as="geometry" />
        </mxCell>
        <mxCell id="-csYpBsCqHvFZOswOHY8-2260" value="&lt;font style=&quot;font-size: 20px;&quot;&gt;EMCDD9800&lt;br&gt;Vlan2502&lt;br&gt;&lt;/font&gt;" style="shape=mxgraph.cisco.servers.storage_server;html=1;dashed=0;fillColor=#10739E;strokeColor=#ffffff;strokeWidth=2;verticalLabelPosition=bottom;verticalAlign=top;fontFamily=Helvetica;fontSize=36;fontColor=#FF0000;" vertex="1" parent="1">
          <mxGeometry x="124" y="-232.5" width="54" height="83" as="geometry" />
        </mxCell>
        <mxCell id="-csYpBsCqHvFZOswOHY8-2293" style="edgeStyle=none;shape=link;rounded=0;orthogonalLoop=1;jettySize=auto;html=1;exitX=0.5;exitY=0;exitDx=0;exitDy=0;exitPerimeter=0;fontSize=20;endArrow=none;endFill=0;fontColor=#FF0000;" edge="1" parent="1" source="-csYpBsCqHvFZOswOHY8-2261" target="-csYpBsCqHvFZOswOHY8-2272">
          <mxGeometry relative="1" as="geometry" />
        </mxCell>
        <mxCell id="-csYpBsCqHvFZOswOHY8-2261" value="&lt;span style=&quot;font-size: 20px;&quot;&gt;DUT123&lt;/span&gt;" style="shape=mxgraph.cisco.switches.workgroup_switch;html=1;dashed=0;fillColor=#10739E;strokeColor=#ffffff;strokeWidth=2;verticalLabelPosition=bottom;verticalAlign=top;fontFamily=Helvetica;fontSize=36;fontColor=#FF0000;" vertex="1" parent="1">
          <mxGeometry x="241.02" y="-497" width="101" height="50" as="geometry" />
        </mxCell>
        <mxCell id="-csYpBsCqHvFZOswOHY8-2286" style="edgeStyle=none;shape=link;rounded=0;orthogonalLoop=1;jettySize=auto;html=1;exitX=0.98;exitY=0.5;exitDx=0;exitDy=0;exitPerimeter=0;entryX=0.086;entryY=0.52;entryDx=0;entryDy=0;entryPerimeter=0;fontSize=20;endArrow=none;endFill=0;fontColor=#FF0000;" edge="1" parent="1" source="-csYpBsCqHvFZOswOHY8-2263" target="-csYpBsCqHvFZOswOHY8-2264">
          <mxGeometry relative="1" as="geometry" />
        </mxCell>
        <mxCell id="-csYpBsCqHvFZOswOHY8-2303" style="edgeStyle=none;rounded=0;orthogonalLoop=1;jettySize=auto;html=1;exitX=0.5;exitY=0;exitDx=0;exitDy=0;exitPerimeter=0;entryX=0.5;entryY=0.98;entryDx=0;entryDy=0;entryPerimeter=0;fontSize=20;endArrow=none;endFill=0;fontColor=#FF0000;" edge="1" parent="1" source="-csYpBsCqHvFZOswOHY8-2263" target="-csYpBsCqHvFZOswOHY8-2268">
          <mxGeometry relative="1" as="geometry" />
        </mxCell>
        <mxCell id="-csYpBsCqHvFZOswOHY8-2304" style="edgeStyle=none;rounded=0;orthogonalLoop=1;jettySize=auto;html=1;exitX=0.5;exitY=0;exitDx=0;exitDy=0;exitPerimeter=0;entryX=0.5;entryY=0.98;entryDx=0;entryDy=0;entryPerimeter=0;fontSize=20;endArrow=none;endFill=0;fontColor=#FF0000;" edge="1" parent="1" source="-csYpBsCqHvFZOswOHY8-2263" target="-csYpBsCqHvFZOswOHY8-2267">
          <mxGeometry relative="1" as="geometry" />
        </mxCell>
        <mxCell id="-csYpBsCqHvFZOswOHY8-2263" value="&lt;font style=&quot;font-size: 20px;&quot;&gt;EUT15&lt;/font&gt;" style="shape=mxgraph.cisco.switches.workgroup_switch;html=1;dashed=0;fillColor=#10739E;strokeColor=#ffffff;strokeWidth=2;verticalLabelPosition=bottom;verticalAlign=top;fontFamily=Helvetica;fontSize=36;fontColor=#FF0000;" vertex="1" parent="1">
          <mxGeometry x="490" y="-495" width="101" height="50" as="geometry" />
        </mxCell>
        <mxCell id="-csYpBsCqHvFZOswOHY8-2306" style="edgeStyle=none;rounded=0;orthogonalLoop=1;jettySize=auto;html=1;exitX=0.5;exitY=0;exitDx=0;exitDy=0;exitPerimeter=0;fontSize=20;endArrow=none;endFill=0;fontColor=#FF0000;" edge="1" parent="1" source="-csYpBsCqHvFZOswOHY8-2264" target="-csYpBsCqHvFZOswOHY8-2268">
          <mxGeometry relative="1" as="geometry" />
        </mxCell>
        <mxCell id="-csYpBsCqHvFZOswOHY8-2264" value="&lt;span style=&quot;font-size: 20px;&quot;&gt;EUT16&lt;/span&gt;" style="shape=mxgraph.cisco.switches.workgroup_switch;html=1;dashed=0;fillColor=#10739E;strokeColor=#ffffff;strokeWidth=2;verticalLabelPosition=bottom;verticalAlign=top;fontFamily=Helvetica;fontSize=36;fontColor=#FF0000;" vertex="1" parent="1">
          <mxGeometry x="648" y="-495" width="101" height="50" as="geometry" />
        </mxCell>
        <mxCell id="-csYpBsCqHvFZOswOHY8-2307" style="edgeStyle=none;rounded=0;orthogonalLoop=1;jettySize=auto;html=1;exitX=0.5;exitY=0;exitDx=0;exitDy=0;exitPerimeter=0;fontSize=20;endArrow=none;endFill=0;fontColor=#FF0000;" edge="1" parent="1" source="-csYpBsCqHvFZOswOHY8-2265" target="-csYpBsCqHvFZOswOHY8-2263">
          <mxGeometry relative="1" as="geometry" />
        </mxCell>
        <mxCell id="-csYpBsCqHvFZOswOHY8-2308" style="edgeStyle=none;rounded=0;orthogonalLoop=1;jettySize=auto;html=1;exitX=0.5;exitY=0;exitDx=0;exitDy=0;exitPerimeter=0;entryX=0.243;entryY=1.037;entryDx=0;entryDy=0;entryPerimeter=0;fontSize=20;endArrow=none;endFill=0;fontColor=#FF0000;" edge="1" parent="1" source="-csYpBsCqHvFZOswOHY8-2265" target="-csYpBsCqHvFZOswOHY8-2264">
          <mxGeometry relative="1" as="geometry" />
        </mxCell>
        <mxCell id="-csYpBsCqHvFZOswOHY8-2265" value="&lt;font style=&quot;font-size: 20px;&quot;&gt;Infiniguard&lt;br&gt;Vlan 2502&lt;br&gt;&lt;/font&gt;" style="shape=mxgraph.cisco.servers.storage_server;html=1;dashed=0;fillColor=#10739E;strokeColor=#ffffff;strokeWidth=2;verticalLabelPosition=bottom;verticalAlign=top;fontFamily=Helvetica;fontSize=36;fontColor=#FF0000;" vertex="1" parent="1">
          <mxGeometry x="516" y="-240" width="54" height="83" as="geometry" />
        </mxCell>
        <mxCell id="-csYpBsCqHvFZOswOHY8-2309" style="edgeStyle=none;rounded=0;orthogonalLoop=1;jettySize=auto;html=1;entryX=0.688;entryY=1.02;entryDx=0;entryDy=0;entryPerimeter=0;fontSize=20;endArrow=none;endFill=0;exitX=0.5;exitY=0;exitDx=0;exitDy=0;exitPerimeter=0;fontColor=#FF0000;" edge="1" parent="1" source="-csYpBsCqHvFZOswOHY8-2266" target="-csYpBsCqHvFZOswOHY8-2263">
          <mxGeometry relative="1" as="geometry">
            <mxPoint x="702" y="-372" as="sourcePoint" />
          </mxGeometry>
        </mxCell>
        <mxCell id="-csYpBsCqHvFZOswOHY8-2310" style="edgeStyle=none;rounded=0;orthogonalLoop=1;jettySize=auto;html=1;exitX=0.5;exitY=0;exitDx=0;exitDy=0;exitPerimeter=0;fontSize=20;endArrow=none;endFill=0;fontColor=#FF0000;" edge="1" parent="1" source="-csYpBsCqHvFZOswOHY8-2266" target="-csYpBsCqHvFZOswOHY8-2264">
          <mxGeometry relative="1" as="geometry" />
        </mxCell>
        <mxCell id="-csYpBsCqHvFZOswOHY8-2266" value="&lt;span style=&quot;font-size: 20px;&quot;&gt;OVM&lt;br&gt;Vlan1094&lt;br&gt;&lt;/span&gt;" style="shape=mxgraph.cisco.servers.file_server;html=1;dashed=0;fillColor=#10739E;strokeColor=#ffffff;strokeWidth=2;verticalLabelPosition=bottom;verticalAlign=top;fontFamily=Helvetica;fontSize=36;fontColor=#FF0000;" vertex="1" parent="1">
          <mxGeometry x="679.5" y="-234.5" width="43" height="77.5" as="geometry" />
        </mxCell>
        <mxCell id="-csYpBsCqHvFZOswOHY8-2285" style="edgeStyle=none;shape=link;rounded=0;orthogonalLoop=1;jettySize=auto;html=1;exitX=0.98;exitY=0.5;exitDx=0;exitDy=0;exitPerimeter=0;entryX=0;entryY=0.5;entryDx=0;entryDy=0;entryPerimeter=0;fontSize=20;endArrow=none;endFill=0;fontColor=#FF0000;" edge="1" parent="1" source="-csYpBsCqHvFZOswOHY8-2267" target="-csYpBsCqHvFZOswOHY8-2268">
          <mxGeometry relative="1" as="geometry" />
        </mxCell>
        <mxCell id="-csYpBsCqHvFZOswOHY8-2299" style="edgeStyle=none;rounded=0;orthogonalLoop=1;jettySize=auto;html=1;exitX=0.5;exitY=0;exitDx=0;exitDy=0;exitPerimeter=0;entryX=0.713;entryY=1.003;entryDx=0;entryDy=0;entryPerimeter=0;fontSize=20;endArrow=none;endFill=0;fontColor=#FF0000;" edge="1" parent="1" source="-csYpBsCqHvFZOswOHY8-2267" target="-csYpBsCqHvFZOswOHY8-2273">
          <mxGeometry relative="1" as="geometry" />
        </mxCell>
        <mxCell id="-csYpBsCqHvFZOswOHY8-2301" style="edgeStyle=none;rounded=0;orthogonalLoop=1;jettySize=auto;html=1;exitX=0.5;exitY=0;exitDx=0;exitDy=0;exitPerimeter=0;entryX=0.705;entryY=1.02;entryDx=0;entryDy=0;entryPerimeter=0;fontSize=20;endArrow=none;endFill=0;fontColor=#FF0000;" edge="1" parent="1" source="-csYpBsCqHvFZOswOHY8-2267" target="-csYpBsCqHvFZOswOHY8-2274">
          <mxGeometry relative="1" as="geometry" />
        </mxCell>
        <mxCell id="-csYpBsCqHvFZOswOHY8-2305" style="edgeStyle=none;rounded=0;orthogonalLoop=1;jettySize=auto;html=1;exitX=0.5;exitY=0.98;exitDx=0;exitDy=0;exitPerimeter=0;entryX=0.5;entryY=0;entryDx=0;entryDy=0;entryPerimeter=0;fontSize=20;endArrow=none;endFill=0;fontColor=#FF0000;" edge="1" parent="1" source="-csYpBsCqHvFZOswOHY8-2267" target="-csYpBsCqHvFZOswOHY8-2264">
          <mxGeometry relative="1" as="geometry" />
        </mxCell>
        <mxCell id="-csYpBsCqHvFZOswOHY8-2267" value="&lt;span style=&quot;font-size: 20px;&quot;&gt;NUT01&lt;/span&gt;" style="shape=mxgraph.cisco.switches.workgroup_switch;html=1;dashed=0;fillColor=#10739E;strokeColor=#ffffff;strokeWidth=2;verticalLabelPosition=bottom;verticalAlign=top;fontFamily=Helvetica;fontSize=36;fontColor=#FF0000;" vertex="1" parent="1">
          <mxGeometry x="490" y="-730" width="101" height="50" as="geometry" />
        </mxCell>
        <mxCell id="-csYpBsCqHvFZOswOHY8-2300" style="edgeStyle=none;rounded=0;orthogonalLoop=1;jettySize=auto;html=1;exitX=0.5;exitY=0;exitDx=0;exitDy=0;exitPerimeter=0;fontSize=20;endArrow=none;endFill=0;entryX=0.724;entryY=1.011;entryDx=0;entryDy=0;entryPerimeter=0;fontColor=#FF0000;" edge="1" parent="1" source="-csYpBsCqHvFZOswOHY8-2268" target="-csYpBsCqHvFZOswOHY8-2273">
          <mxGeometry relative="1" as="geometry">
            <mxPoint x="390" y="-800" as="targetPoint" />
          </mxGeometry>
        </mxCell>
        <mxCell id="-csYpBsCqHvFZOswOHY8-2302" style="edgeStyle=none;rounded=0;orthogonalLoop=1;jettySize=auto;html=1;exitX=0.5;exitY=0;exitDx=0;exitDy=0;exitPerimeter=0;entryX=0.688;entryY=1.02;entryDx=0;entryDy=0;entryPerimeter=0;fontSize=20;endArrow=none;endFill=0;fontColor=#FF0000;" edge="1" parent="1" source="-csYpBsCqHvFZOswOHY8-2268" target="-csYpBsCqHvFZOswOHY8-2274">
          <mxGeometry relative="1" as="geometry" />
        </mxCell>
        <mxCell id="-csYpBsCqHvFZOswOHY8-2268" value="&lt;span style=&quot;font-size: 20px;&quot;&gt;NUT02&lt;/span&gt;" style="shape=mxgraph.cisco.switches.workgroup_switch;html=1;dashed=0;fillColor=#10739E;strokeColor=#ffffff;strokeWidth=2;verticalLabelPosition=bottom;verticalAlign=top;fontFamily=Helvetica;fontSize=36;fontColor=#FF0000;" vertex="1" parent="1">
          <mxGeometry x="648" y="-730" width="101" height="50" as="geometry" />
        </mxCell>
        <mxCell id="-csYpBsCqHvFZOswOHY8-2284" style="edgeStyle=none;shape=link;rounded=0;orthogonalLoop=1;jettySize=auto;html=1;entryX=0;entryY=0.5;entryDx=0;entryDy=0;entryPerimeter=0;fontSize=20;endArrow=none;endFill=0;fontColor=#FF0000;" edge="1" parent="1" source="-csYpBsCqHvFZOswOHY8-2271" target="-csYpBsCqHvFZOswOHY8-2272">
          <mxGeometry relative="1" as="geometry">
            <mxPoint x="230.00000000000003" y="-707" as="sourcePoint" />
          </mxGeometry>
        </mxCell>
        <mxCell id="-csYpBsCqHvFZOswOHY8-2288" style="edgeStyle=none;rounded=0;orthogonalLoop=1;jettySize=auto;html=1;exitX=0.5;exitY=0;exitDx=0;exitDy=0;exitPerimeter=0;fontSize=20;endArrow=none;endFill=0;entryX=0.5;entryY=0.98;entryDx=0;entryDy=0;entryPerimeter=0;fontColor=#FF0000;" edge="1" parent="1" source="-csYpBsCqHvFZOswOHY8-2271" target="-csYpBsCqHvFZOswOHY8-2273">
          <mxGeometry relative="1" as="geometry">
            <mxPoint x="318" y="-803" as="targetPoint" />
          </mxGeometry>
        </mxCell>
        <mxCell id="-csYpBsCqHvFZOswOHY8-2290" style="edgeStyle=none;rounded=0;orthogonalLoop=1;jettySize=auto;html=1;exitX=0.5;exitY=0;exitDx=0;exitDy=0;exitPerimeter=0;entryX=0.5;entryY=0.98;entryDx=0;entryDy=0;entryPerimeter=0;fontSize=20;endArrow=none;endFill=0;fontColor=#FF0000;" edge="1" parent="1" source="-csYpBsCqHvFZOswOHY8-2271" target="-csYpBsCqHvFZOswOHY8-2274">
          <mxGeometry relative="1" as="geometry" />
        </mxCell>
        <mxCell id="-csYpBsCqHvFZOswOHY8-2271" value="&lt;font style=&quot;font-size: 20px;&quot;&gt;CUT01&lt;/font&gt;" style="shape=mxgraph.cisco.switches.workgroup_switch;html=1;dashed=0;fillColor=#10739E;strokeColor=#ffffff;strokeWidth=2;verticalLabelPosition=bottom;verticalAlign=top;fontFamily=Helvetica;fontSize=36;fontColor=#FF0000;" vertex="1" parent="1">
          <mxGeometry x="98" y="-730" width="101" height="50" as="geometry" />
        </mxCell>
        <mxCell id="-csYpBsCqHvFZOswOHY8-2289" style="edgeStyle=none;rounded=0;orthogonalLoop=1;jettySize=auto;html=1;exitX=0.5;exitY=0;exitDx=0;exitDy=0;exitPerimeter=0;entryX=0.5;entryY=0.98;entryDx=0;entryDy=0;entryPerimeter=0;fontSize=20;endArrow=none;endFill=0;fontColor=#FF0000;" edge="1" parent="1" source="-csYpBsCqHvFZOswOHY8-2272" target="-csYpBsCqHvFZOswOHY8-2273">
          <mxGeometry relative="1" as="geometry" />
        </mxCell>
        <mxCell id="-csYpBsCqHvFZOswOHY8-2291" style="edgeStyle=none;rounded=0;orthogonalLoop=1;jettySize=auto;html=1;exitX=0.5;exitY=0;exitDx=0;exitDy=0;exitPerimeter=0;entryX=0.432;entryY=1.02;entryDx=0;entryDy=0;entryPerimeter=0;fontSize=20;endArrow=none;endFill=0;fontColor=#FF0000;" edge="1" parent="1" source="-csYpBsCqHvFZOswOHY8-2272" target="-csYpBsCqHvFZOswOHY8-2274">
          <mxGeometry relative="1" as="geometry" />
        </mxCell>
        <mxCell id="-csYpBsCqHvFZOswOHY8-2272" value="&lt;span style=&quot;font-size: 20px;&quot;&gt;CUT02&lt;/span&gt;" style="shape=mxgraph.cisco.switches.workgroup_switch;html=1;dashed=0;fillColor=#10739E;strokeColor=#ffffff;strokeWidth=2;verticalLabelPosition=bottom;verticalAlign=top;fontFamily=Helvetica;fontSize=36;fontColor=#FF0000;" vertex="1" parent="1">
          <mxGeometry x="241.02" y="-732" width="101" height="50" as="geometry" />
        </mxCell>
        <mxCell id="-csYpBsCqHvFZOswOHY8-2276" style="edgeStyle=orthogonalEdgeStyle;rounded=0;orthogonalLoop=1;jettySize=auto;html=1;exitX=0.5;exitY=0;exitDx=0;exitDy=0;exitPerimeter=0;fontSize=20;endArrow=none;endFill=0;fontColor=#FF0000;" edge="1" parent="1" source="-csYpBsCqHvFZOswOHY8-2273" target="-csYpBsCqHvFZOswOHY8-2258">
          <mxGeometry relative="1" as="geometry" />
        </mxCell>
        <mxCell id="-csYpBsCqHvFZOswOHY8-2277" style="rounded=0;orthogonalLoop=1;jettySize=auto;html=1;exitX=0.5;exitY=0;exitDx=0;exitDy=0;exitPerimeter=0;entryX=0.5;entryY=1;entryDx=0;entryDy=0;entryPerimeter=0;fontSize=20;endArrow=none;endFill=0;fontColor=#FF0000;" edge="1" parent="1" source="-csYpBsCqHvFZOswOHY8-2273" target="-csYpBsCqHvFZOswOHY8-2275">
          <mxGeometry relative="1" as="geometry" />
        </mxCell>
        <mxCell id="-csYpBsCqHvFZOswOHY8-2283" style="edgeStyle=none;rounded=0;orthogonalLoop=1;jettySize=auto;html=1;exitX=0.98;exitY=0.5;exitDx=0;exitDy=0;exitPerimeter=0;entryX=0;entryY=0.5;entryDx=0;entryDy=0;entryPerimeter=0;fontSize=20;endArrow=none;endFill=0;shape=link;fontColor=#FF0000;" edge="1" parent="1" source="-csYpBsCqHvFZOswOHY8-2273" target="-csYpBsCqHvFZOswOHY8-2274">
          <mxGeometry relative="1" as="geometry" />
        </mxCell>
        <mxCell id="-csYpBsCqHvFZOswOHY8-2273" value="&lt;span style=&quot;font-size: 20px;&quot;&gt;EUT11&lt;/span&gt;" style="shape=mxgraph.cisco.switches.workgroup_switch;html=1;dashed=0;fillColor=#10739E;strokeColor=#ffffff;strokeWidth=2;verticalLabelPosition=bottom;verticalAlign=top;fontFamily=Helvetica;fontSize=36;fontColor=#FF0000;" vertex="1" parent="1">
          <mxGeometry x="308.5" y="-890" width="101" height="50" as="geometry" />
        </mxCell>
        <mxCell id="-csYpBsCqHvFZOswOHY8-2280" style="edgeStyle=none;rounded=0;orthogonalLoop=1;jettySize=auto;html=1;exitX=0.5;exitY=0;exitDx=0;exitDy=0;exitPerimeter=0;fontSize=20;endArrow=none;endFill=0;fontColor=#FF0000;" edge="1" parent="1" source="-csYpBsCqHvFZOswOHY8-2274" target="-csYpBsCqHvFZOswOHY8-2275">
          <mxGeometry relative="1" as="geometry" />
        </mxCell>
        <mxCell id="-csYpBsCqHvFZOswOHY8-2274" value="&lt;span style=&quot;font-size: 20px;&quot;&gt;EUT12&lt;/span&gt;" style="shape=mxgraph.cisco.switches.workgroup_switch;html=1;dashed=0;fillColor=#10739E;strokeColor=#ffffff;strokeWidth=2;verticalLabelPosition=bottom;verticalAlign=top;fontFamily=Helvetica;fontSize=36;fontColor=#FF0000;" vertex="1" parent="1">
          <mxGeometry x="428" y="-890" width="101" height="50" as="geometry" />
        </mxCell>
        <mxCell id="-csYpBsCqHvFZOswOHY8-2275" value="&lt;font style=&quot;font-size: 20px;&quot;&gt;RUT-C9K-2&lt;/font&gt;" style="shape=mxgraph.cisco.routers.router;html=1;dashed=0;fillColor=#10739E;strokeColor=#ffffff;strokeWidth=2;verticalLabelPosition=bottom;verticalAlign=top;fontFamily=Helvetica;fontSize=36;fontColor=#FF0000;" vertex="1" parent="1">
          <mxGeometry x="430" y="-1160" width="78" height="53" as="geometry" />
        </mxCell>
        <mxCell id="-csYpBsCqHvFZOswOHY8-2312" value="Po11&lt;br&gt;4x10G" style="ellipse;whiteSpace=wrap;html=1;fontSize=20;opacity=50;fontColor=#000000;" vertex="1" parent="1">
          <mxGeometry x="90" y="-590" width="261" height="50" as="geometry" />
        </mxCell>
        <mxCell id="-csYpBsCqHvFZOswOHY8-2313" value="Po751&lt;br&gt;2x10G" style="ellipse;whiteSpace=wrap;html=1;fontSize=20;opacity=50;fontColor=#000000;" vertex="1" parent="1">
          <mxGeometry x="110" y="-310" width="110" height="50" as="geometry" />
        </mxCell>
        <mxCell id="-csYpBsCqHvFZOswOHY8-2314" value="Po550&lt;br&gt;2x10G" style="ellipse;whiteSpace=wrap;html=1;fontSize=20;opacity=50;fontColor=#000000;" vertex="1" parent="1">
          <mxGeometry x="220" y="-310" width="110" height="50" as="geometry" />
        </mxCell>
        <mxCell id="-csYpBsCqHvFZOswOHY8-2315" value="Po4000&lt;br&gt;4x10G" style="ellipse;whiteSpace=wrap;html=1;fontSize=20;opacity=50;fontColor=#000000;" vertex="1" parent="1">
          <mxGeometry x="130" y="-790" width="261" height="50" as="geometry" />
        </mxCell>
        <mxCell id="-csYpBsCqHvFZOswOHY8-2317" value="" style="edgeStyle=none;rounded=0;orthogonalLoop=1;jettySize=auto;html=1;exitX=0.5;exitY=0;exitDx=0;exitDy=0;exitPerimeter=0;fontSize=20;endArrow=none;endFill=0;entryX=0.5;entryY=1;entryDx=0;entryDy=0;entryPerimeter=0;fontColor=#FF0000;" edge="1" parent="1" source="-csYpBsCqHvFZOswOHY8-2274" target="-csYpBsCqHvFZOswOHY8-2258">
          <mxGeometry relative="1" as="geometry">
            <mxPoint x="478.5" y="-890" as="sourcePoint" />
            <mxPoint x="370" y="-1060" as="targetPoint" />
          </mxGeometry>
        </mxCell>
        <mxCell id="-csYpBsCqHvFZOswOHY8-2316" value="Po5&lt;br&gt;2x100G" style="ellipse;whiteSpace=wrap;html=1;fontSize=20;opacity=50;fontColor=#000000;" vertex="1" parent="1">
          <mxGeometry x="307.5" y="-1060" width="107" height="50" as="geometry" />
        </mxCell>
        <mxCell id="-csYpBsCqHvFZOswOHY8-2319" value="Po6&lt;br&gt;2x100G" style="ellipse;whiteSpace=wrap;html=1;fontSize=20;opacity=50;fontColor=#000000;" vertex="1" parent="1">
          <mxGeometry x="420" y="-1060" width="107" height="50" as="geometry" />
        </mxCell>
        <mxCell id="-csYpBsCqHvFZOswOHY8-2320" value="eVPN&lt;br&gt;4x100G" style="ellipse;whiteSpace=wrap;html=1;fontSize=20;opacity=50;fontColor=#000000;" vertex="1" parent="1">
          <mxGeometry x="450" y="-790" width="261" height="50" as="geometry" />
        </mxCell>
        <mxCell id="-csYpBsCqHvFZOswOHY8-2321" value="eVPN&lt;br&gt;4x100G" style="ellipse;whiteSpace=wrap;html=1;fontSize=20;opacity=50;fontColor=#000000;" vertex="1" parent="1">
          <mxGeometry x="488" y="-609.5" width="261" height="50" as="geometry" />
        </mxCell>
        <mxCell id="-csYpBsCqHvFZOswOHY8-2325" value="Po221&lt;br&gt;2x25G" style="ellipse;whiteSpace=wrap;html=1;fontSize=20;opacity=50;fontColor=#000000;" vertex="1" parent="1">
          <mxGeometry x="508.5" y="-310" width="110" height="50" as="geometry" />
        </mxCell>
        <mxCell id="-csYpBsCqHvFZOswOHY8-2326" value="Po216&lt;br style=&quot;border-color: var(--border-color);&quot;&gt;2x25G" style="ellipse;whiteSpace=wrap;html=1;fontSize=20;opacity=50;fontColor=#000000;" vertex="1" parent="1">
          <mxGeometry x="618.5" y="-310" width="110" height="50" as="geometry" />
        </mxCell>
      </root>
    </mxGraphModel>
  </diagram>
</mxfile>
